<svg width="100%" height="100%" preserveAspectRatio = "none" viewBox="0 0 200 50" fill="none" xmlns="http://www.w3.org/2000/svg">
<mask id="path-1-inside-1_32_5" fill="white">
<path fill-rule="evenodd" clip-rule="evenodd" d="M25 0H175C188.807 0 200 11.1929 200 25C200 38.8071 188.807 50 175 50H25C11.1929 50 0 38.8071 0 25C0 11.1929 11.1929 0 25 0Z"/>
</mask>
<path d="M175 -1H25V1H175V-1ZM201 25C201 10.6406 189.359 -1 175 -1V1C188.255 1 199 11.7452 199 25H201ZM175 51C189.359 51 201 39.3594 201 25H199C199 38.2548 188.255 49 175 49V51ZM25 51H175V49H25V51ZM25 49C11.7452 49 1 38.2548 1 25H-1C-1 39.3594 10.6406 51 25 51V49ZM1 25C1 11.7452 11.7452 1 25 1V-1C10.6406 -1 -1 10.6406 -1 25H1Z" fill="white" mask="url(#path-1-inside-1_32_5)"/>
</svg>
